{
	"asset":{
		"generator":"Khronos glTF Blender I/O v3.6.27",
		"version":"2.0"
	},
	"scene":0,
	"scenes":[
		{
			"name":"Scene",
			"nodes":[
				0,
				1
			]
		}
	],
	"nodes":[
		{
			"mesh":0,
			"name":"Cube",
			"scale":[
				-1.4052983522415161,
				-0.24960771203041077,
				-1.5778917074203491
			],
			"translation":[
				1.1432809829711914,
				2.764636516571045,
				-0.0385127067565918
			]
		},
		{
			"mesh":1,
			"name":"Cube.001",
			"scale":[
				-0.7358201146125793,
				-0.18731030821800232,
				-0.8642497658729553
			],
			"translation":[
				-0.7231717109680176,
				2.0450637340545654,
				0.11419802904129028
			]
		}
	],
	"materials":[
		{
			"doubleSided":true,
			"name":"Material.001",
			"pbrMetallicRoughness":{
				"baseColorFactor":[
					0.8000000715255737,
					0.11311160773038864,
					0.08583559095859528,
					1
				],
				"metallicFactor":0,
				"roughnessFactor":0.5
			}
		}
	],
	"meshes":[
		{
			"name":"Cube.001",
			"primitives":[
				{
					"attributes":{
						"POSITION":0,
						"NORMAL":1,
						"TEXCOORD_0":2
					},
					"indices":3,
					"material":0
				}
			]
		},
		{
			"name":"Cube.002",
			"primitives":[
				{
					"attributes":{
						"POSITION":4,
						"NORMAL":5,
						"TEXCOORD_0":6
					},
					"indices":7
				}
			]
		}
	],
	"accessors":[
		{
			"bufferView":0,
			"componentType":5126,
			"count":216,
			"max":[
				1,
				10.031255722045898,
				1.0017715692520142
			],
			"min":[
				-1,
				-1,
				-1
			],
			"type":"VEC3"
		},
		{
			"bufferView":1,
			"componentType":5126,
			"count":216,
			"type":"VEC3"
		},
		{
			"bufferView":2,
			"componentType":5126,
			"count":216,
			"type":"VEC2"
		},
		{
			"bufferView":3,
			"componentType":5123,
			"count":372,
			"type":"SCALAR"
		},
		{
			"bufferView":4,
			"componentType":5126,
			"count":240,
			"max":[
				1,
				10.031255722045898,
				1.0017715692520142
			],
			"min":[
				-1,
				-11.517463684082031,
				-1
			],
			"type":"VEC3"
		},
		{
			"bufferView":5,
			"componentType":5126,
			"count":240,
			"type":"VEC3"
		},
		{
			"bufferView":6,
			"componentType":5126,
			"count":240,
			"type":"VEC2"
		},
		{
			"bufferView":7,
			"componentType":5123,
			"count":408,
			"type":"SCALAR"
		}
	],
	"bufferViews":[
		{
			"buffer":0,
			"byteLength":2592,
			"byteOffset":0,
			"target":34962
		},
		{
			"buffer":0,
			"byteLength":2592,
			"byteOffset":2592,
			"target":34962
		},
		{
			"buffer":0,
			"byteLength":1728,
			"byteOffset":5184,
			"target":34962
		},
		{
			"buffer":0,
			"byteLength":744,
			"byteOffset":6912,
			"target":34963
		},
		{
			"buffer":0,
			"byteLength":2880,
			"byteOffset":7656,
			"target":34962
		},
		{
			"buffer":0,
			"byteLength":2880,
			"byteOffset":10536,
			"target":34962
		},
		{
			"buffer":0,
			"byteLength":1920,
			"byteOffset":13416,
			"target":34962
		},
		{
			"buffer":0,
			"byteLength":816,
			"byteOffset":15336,
			"target":34963
		}
	],
	"buffers":[
		{
			"byteLength":16152,
			"uri":"chair.bin"
		}
	]
}
